<?xml version="1.0" encoding="iso-8859-1"?>
<!-- Generator: Adobe Illustrator 19.0.0, SVG Export Plug-In . SVG Version: 6.00 Build 0)  -->
<svg version="1.1" id="Layer_1" xmlns="http://www.w3.org/2000/svg" xmlns:xlink="http://www.w3.org/1999/xlink" x="0px" y="0px"
	 viewBox="0 0 448 448" style="enable-background:new 0 0 448 448;" xml:space="preserve">
<path style="fill:#42210B;" d="M392,32v96c0,24-17.6,43.2-40,47.2v234.4c0,21.6-17.6,38.4-38.4,38.4H134.4
	c-21.6,0-38.4-17.6-38.4-38.4V368v-16V175.2c-22.4-4-40-23.2-40-47.2V32V8c0-4.8,3.2-8,8-8h320c4,0,8,3.2,8,8V32z M376,128V40h-64
	v88c0,17.6,14.4,32,32,32S376,145.6,376,128z M376,24v-8H72v8h72h80h80H376z M336,409.6V368H224H112v41.6
	c0,12.8,10.4,22.4,22.4,22.4H224h89.6C325.6,432,336,421.6,336,409.6z M336,352V175.2c-13.6-2.4-24.8-10.4-32-20.8
	c-8.8,12.8-23.2,21.6-40,21.6s-31.2-8.8-40-21.6c-8.8,12.8-23.2,21.6-40,21.6s-31.2-8.8-40-21.6c-7.2,11.2-18.4,18.4-32,20.8V352
	H336z M296,128V40h-64v88c0,17.6,14.4,32,32,32S296,145.6,296,128z M216,128V40h-64v88c0,17.6,14.4,32,32,32S216,145.6,216,128z
	 M136,128V40H72v88c0,17.6,14.4,32,32,32S136,145.6,136,128z"/>
<g>
	<path style="fill:#FF7D00;" d="M376,40v88c0,17.6-14.4,32-32,32s-32-14.4-32-32V40H376z"/>
	<polygon style="fill:#FF7D00;" points="376,16 376,24 304,24 224,24 144,24 72,24 72,16 	"/>
</g>
<path style="fill:#FFF8EF;" d="M336,175.2V352H112V175.2c13.6-2.4,24.8-10.4,32-20.8c8.8,12.8,23.2,21.6,40,21.6s31.2-8.8,40-21.6
	c8.8,12.8,23.2,21.6,40,21.6s31.2-8.8,40-21.6C311.2,165.6,322.4,172.8,336,175.2z M312,328v-16h-32v16H312z M312,304v-16h-32v16
	H312z M296,240v-32c0-4-4-8-8-8h-56c-4,0-8,4-8,8v32c0,4,4,8,8,8h56C292,248,296,244,296,240z M264,328v-16H136v16H264z M264,304
	v-16H136v16H264z M208,224c0-22.4-17.6-40-40-40s-40,17.6-40,40s17.6,40,40,40S208,246.4,208,224z"/>
<g>
	<rect x="280" y="312" style="fill:#42210B;" width="32" height="16"/>
	<rect x="280" y="288" style="fill:#42210B;" width="32" height="16"/>
	<path style="fill:#42210B;" d="M296,208v32c0,4-4,8-8,8h-56c-4,0-8-4-8-8v-32c0-4,4-8,8-8h56C292,200,296,204,296,208z M280,232
		v-16h-40v16H280z"/>
</g>
<path style="fill:#1D9AAE;" d="M296,40v88c0,17.6-14.4,32-32,32s-32-14.4-32-32V40H296z"/>
<rect x="240" y="216" style="fill:#EE5656;" width="40" height="16"/>
<g>
	<rect x="136" y="312" style="fill:#42210B;" width="128" height="16"/>
	<rect x="136" y="288" style="fill:#42210B;" width="128" height="16"/>
	<path style="fill:#42210B;" d="M224,376c13.6,0,24,10.4,24,24s-10.4,24-24,24c-12.8,0-24-10.4-24-24S211.2,376,224,376z M232,400
		c0-4-4-8-8-8s-8,4-8,8s4,8,8,8S232,404,232,400z"/>
</g>
<path style="fill:#FF9900;" d="M224,368H112v41.6c0,12.8,10.4,22.4,22.4,22.4H224h89.6c12.8,0,22.4-10.4,22.4-22.4V368H224z
	 M224,424c-13.6,0-24-11.2-24-24c0-13.6,10.4-24,24-24s24,10.4,24,24C248,412.8,237.6,424,224,424z"/>
<path style="fill:#FF7D00;" d="M216,40v88c0,17.6-14.4,32-32,32s-32-14.4-32-32V40H216z"/>
<g>
	<path style="fill:#FF9900;" d="M376,40v70.4c0,14.4-14.4,25.6-32,25.6s-32-11.2-32-25.6V40H376z"/>
	<path style="fill:#FF9900;" d="M216,40v70.4c0,14.4-14.4,25.6-32,25.6s-32-11.2-32-25.6V40H216z"/>
</g>
<path style="fill:#42210B;" d="M168,184c22.4,0,40,17.6,40,40s-17.6,40-40,40s-40-17.6-40-40S145.6,184,168,184z M192,224
	c0-12.8-11.2-24-24-24s-24,11.2-24,24c0,13.6,11.2,24,24,24S192,237.6,192,224z"/>
<circle style="fill:#EE5656;" cx="168" cy="224" r="24"/>
<path style="fill:#1D9AAE;" d="M136,40v88c0,17.6-14.4,32-32,32s-32-14.4-32-32V40H136z"/>
<g>
	<path style="fill:#2FB4C2;" d="M296,40v70.4c0,14.4-14.4,25.6-32,25.6s-32-11.2-32-25.6V40H296z"/>
	<path style="fill:#2FB4C2;" d="M136,40v70.4c0,14.4-14.4,25.6-32,25.6s-32-11.2-32-25.6V40H136z"/>
</g>
<path style="fill:#FF7D00;" d="M328,368v33.6c0,12-9.6,22.4-22.4,22.4H142.4c-12,0-22.4-9.6-22.4-22.4V368h-8v41.6
	c0,12.8,10.4,22.4,22.4,22.4H224h89.6c12.8,0,22.4-10.4,22.4-22.4V368H328z"/>
<path style="fill:#D9CDC1;" d="M304,154.4c-8.8,12.8-23.2,21.6-40,21.6s-31.2-8.8-40-21.6c-8.8,12.8-23.2,21.6-40,21.6
	s-31.2-8.8-40-21.6c-7.2,10.4-18.4,18.4-32,20.8v8.8c0,0,24,0,32-16c0,0,16,16,40,16c0,0,32,0,40-16c0,0,8,16,40,16c0,0,40,0,40-16
	c0,0,8,16,32,16v-8.8C322.4,172.8,311.2,165.6,304,154.4z"/>
<g>
</g>
<g>
</g>
<g>
</g>
<g>
</g>
<g>
</g>
<g>
</g>
<g>
</g>
<g>
</g>
<g>
</g>
<g>
</g>
<g>
</g>
<g>
</g>
<g>
</g>
<g>
</g>
<g>
</g>
</svg>
