<?xml version="1.0" encoding="iso-8859-1"?>
<!-- Generator: Adobe Illustrator 19.0.0, SVG Export Plug-In . SVG Version: 6.00 Build 0)  -->
<svg version="1.1" id="Layer_1" xmlns="http://www.w3.org/2000/svg" xmlns:xlink="http://www.w3.org/1999/xlink" x="0px" y="0px"
	 viewBox="0 0 505 505" style="enable-background:new 0 0 505 505;" xml:space="preserve">
<circle style="fill:#54C0EB;" cx="252.5" cy="252.5" r="252.5"/>
<path style="fill:#324A5E;" d="M359.8,426.9H145.2c-4.3,0-7.8-3.5-7.8-7.8v-333c0-4.3,3.5-7.8,7.8-7.8h214.6c4.3,0,7.8,3.5,7.8,7.8
	v333C367.6,423.3,364.1,426.9,359.8,426.9z"/>
<rect x="155" y="117.9" style="fill:#FFFFFF;" width="194.9" height="262.5"/>
<path style="fill:#2B3B4E;" d="M282.3,105.1h-59.6c-3.2,0-5.8-2.6-5.8-5.8l0,0c0-3.2,2.6-5.8,5.8-5.8h59.6c3.2,0,5.8,2.6,5.8,5.8
	l0,0C288.1,102.5,285.5,105.1,282.3,105.1z"/>
<circle style="fill:#ACB3BA;" cx="170.3" cy="97.9" r="7.2"/>
<circle style="fill:#2B3B4E;" cx="252.5" cy="403.3" r="13.1"/>
<path style="fill:#E6E9EE;" d="M322.1,221.5v4.5c0,0.5-0.4,0.9-0.9,0.9h-20.1c-0.5,0-0.9-0.4-0.9-0.9v-0.1h-1
	c-0.1,0.1-0.3,0.2-0.4,0.3l-23.3,75.9l6.7,14.4c0.3,0.7,0.2,1.4-0.1,2c-0.4,0.6-1,1-1.8,1h-11.8c-1,5.1-5.5,9-10.9,9
	s-9.9-3.9-10.9-9h-14.2c-1,5.1-5.5,9-10.9,9s-9.9-3.9-10.9-9h-4.2c-1.2,0-2.1-0.9-2.1-2.1s1-2.1,2.1-2.1h4.3c1-5.1,5.5-9,10.9-9
	s9.9,3.8,10.9,9h14.3c1-5.1,5.5-9,10.9-9s9.9,3.8,10.9,9h8.5l-5.4-11.6H201l-5.2-17.3l-2.2-7.2l-10.4-34.7c-0.2-0.7,0.3-1.3,1-1.3
	h105.3l6.3-20.7c0.1-0.4,0.5-0.7,1-0.7h3.8v-0.3c0-0.5,0.4-0.9,0.9-0.9h20.1C321.7,220.6,322.1,221,322.1,221.5z"/>
<polygon style="fill:#FF7058;" points="172.4,144.8 119.2,144.8 154.7,117.9 193.8,117.9 "/>
<polygon style="fill:#E6E9EE;" points="225.7,144.8 172.4,144.8 193.8,117.9 232.8,117.9 "/>
<polygon style="fill:#FF7058;" points="279,144.8 225.7,144.8 232.8,117.9 271.9,117.9 "/>
<polygon style="fill:#E6E9EE;" points="332.3,144.8 279,144.8 271.9,117.9 311,117.9 "/>
<polygon style="fill:#FF7058;" points="385.6,144.8 332.3,144.8 311,117.9 350,117.9 "/>
<path style="fill:#F1543F;" d="M119.2,144.7v14.6c0,4.7,3.8,8.5,8.5,8.5H164c4.7,0,8.5-3.8,8.5-8.5v-14.6H119.2z"/>
<path style="fill:#CED5E0;" d="M172.4,144.7v14.6c0,4.7,3.8,8.5,8.5,8.5h36.3c4.7,0,8.5-3.8,8.5-8.5v-14.6H172.4z"/>
<path style="fill:#F1543F;" d="M225.7,144.7v14.6c0,4.7,3.8,8.5,8.5,8.5h36.3c4.7,0,8.5-3.8,8.5-8.5v-14.6H225.7z"/>
<path style="fill:#CED5E0;" d="M279,144.7v14.6c0,4.7,3.8,8.5,8.5,8.5h36.3c4.7,0,8.5-3.8,8.5-8.5v-14.6H279z"/>
<path style="fill:#F1543F;" d="M332.3,144.7v14.6c0,4.7,3.8,8.5,8.5,8.5h36.3c4.7,0,8.5-3.8,8.5-8.5v-14.6H332.3z"/>
<g>
</g>
<g>
</g>
<g>
</g>
<g>
</g>
<g>
</g>
<g>
</g>
<g>
</g>
<g>
</g>
<g>
</g>
<g>
</g>
<g>
</g>
<g>
</g>
<g>
</g>
<g>
</g>
<g>
</g>
</svg>
